<?xml version="1.0" standalone="no"?><!DOCTYPE svg PUBLIC "-//W3C//DTD SVG 1.1//EN" "http://www.w3.org/Graphics/SVG/1.1/DTD/svg11.dtd"><svg style="fill: #b2b2b2" viewBox="0 0 1024 1024" version="1.1" xmlns="http://www.w3.org/2000/svg" xmlns:xlink="http://www.w3.org/1999/xlink" width="200" height="200"><defs><style type="text/css"></style></defs><path d="M887.982 353.621c-20.511-48.423-49.759-91.872-87.139-129.251s-80.828-66.628-129.251-87.139c-50.123-21.238-103.402-31.918-158.257-31.918s-108.134 10.801-158.257 31.918c-48.423 20.511-91.872 49.759-129.251 87.139-37.379 37.379-66.628 80.828-87.139 129.251-21.238 50.123-31.918 103.402-31.918 158.257s10.801 108.134 31.918 158.257c20.511 48.423 49.759 91.872 87.139 129.251 37.379 37.379 80.828 66.628 129.251 87.139 50.123 21.238 103.402 31.918 158.257 31.918s108.134-10.801 158.257-31.918c48.423-20.511 91.872-49.759 129.251-87.139 37.379-37.379 66.628-80.828 87.139-129.251 21.238-50.123 31.918-103.402 31.918-158.257s-10.681-108.134-31.918-158.257zM683.364 645.499c11.286 11.286 11.286 29.855 0 41.142s-29.855 11.286-41.142 0l-132.528-132.406-132.406 132.528c-11.286 11.286-29.855 11.286-41.142 0s-11.286-29.855 0-41.142l132.406-132.406-132.528-132.528c-11.286-11.286-11.286-29.855 0-41.142 11.286-11.286 29.855-11.286 41.142 0l132.406 132.406 132.406-132.406c11.286-11.286 29.855-11.286 41.142 0s11.286 29.855 0 41.142l-132.164 132.406 132.406 132.406z"></path></svg>
